<ttFont>
<head>
    <!-- Most of this table will be recalculated by the compiler -->
    <tableVersion value="1.0"/>
    <fontRevision value="1.0"/>
    <checkSumAdjustment value="0xa9c1d66a"/>
    <magicNumber value="0x5f0f3cf5"/>
    <flags value="00000000 00000011"/>
    <unitsPerEm value="1000"/>
    <created value="Fri Jan 17 06:11:33 2025"/>
    <modified value="Fri Jan 17 14:27:50 2025"/>
    <xMin value="7"/>
    <yMin value="-250"/>
    <xMax value="1153"/>
    <yMax value="857"/>
    <macStyle value="00000000 00000000"/>
    <lowestRecPPEM value="6"/>
    <fontDirectionHint value="2"/>
    <indexToLocFormat value="0"/>
    <glyphDataFormat value="0"/>
  </head>
    <TTGlyph name=".notdef" xMin="50" yMin="-250" xMax="450" yMax="750">
      <contour>
        <pt x="50" y="-250" on="1"/>
        <pt x="50" y="750" on="1"/>
        <pt x="450" y="750" on="1"/>
        <pt x="450" y="-250" on="1"/>
      </contour>
      <contour>
        <pt x="100" y="-200" on="1"/>
        <pt x="400" y="-200" on="1"/>
        <pt x="400" y="700" on="1"/>
        <pt x="100" y="700" on="1"/>
      </contour>
    </TTGlyph>
    <TTGlyph name="A" xMin="118" yMin="14" xMax="622" yMax="754">
      <contour>
        <pt x="617" y="311" on="1"/>
        <pt x="617" y="234" on="0"/>
        <pt x="619" y="96" on="0"/>
        <pt x="621" y="41" on="1"/>
        <pt x="622" y="15" on="0"/>
        <pt x="606" y="27" on="0"/>
        <pt x="577" y="84" on="0"/>
        <pt x="537" y="166" on="0"/>
        <pt x="492" y="257" on="0"/>
        <pt x="443" y="338" on="0"/>
        <pt x="396" y="390" on="0"/>
        <pt x="375" y="392" on="1"/>
        <pt x="355" y="394" on="0"/>
        <pt x="317" y="350" on="0"/>
        <pt x="282" y="277" on="0"/>
        <pt x="251" y="191" on="0"/>
        <pt x="223" y="108" on="0"/>
        <pt x="199" y="44" on="0"/>
        <pt x="180" y="14" on="0"/>
        <pt x="173" y="26" on="1"/>
        <pt x="142" y="76" on="0"/>
        <pt x="119" y="150" on="0"/>
        <pt x="118" y="213" on="0"/>
        <pt x="125" y="278" on="0"/>
        <pt x="125" y="320" on="1"/>
        <pt x="125" y="410" on="0"/>
        <pt x="155" y="567" on="0"/>
        <pt x="209" y="686" on="0"/>
        <pt x="280" y="754" on="0"/>
        <pt x="321" y="754" on="1"/>
        <pt x="382" y="754" on="0"/>
        <pt x="490" y="685" on="0"/>
        <pt x="571" y="563" on="0"/>
        <pt x="617" y="403" on="0"/>
      </contour>
      <contour>
        <pt x="486" y="537" on="1"/>
        <pt x="486" y="565" on="0"/>
        <pt x="455" y="612" on="0"/>
        <pt x="402" y="640" on="0"/>
        <pt x="370" y="640" on="1"/>
        <pt x="338" y="640" on="0"/>
        <pt x="285" y="612" on="0"/>
        <pt x="254" y="565" on="0"/>
        <pt x="254" y="537" on="1"/>
        <pt x="254" y="509" on="0"/>
        <pt x="285" y="462" on="0"/>
        <pt x="338" y="434" on="0"/>
        <pt x="370" y="434" on="1"/>
        <pt x="402" y="434" on="0"/>
        <pt x="455" y="462" on="0"/>
        <pt x="486" y="509" on="0"/>
      </contour>
    </TTGlyph>
    <TTGlyph name="A.0" xMin="118" yMin="14" xMax="622" yMax="754">
      <component glyphName="A" x="0" y="0" flags="0x204"/>
    </TTGlyph>
    <TTGlyph name="A.1" xMin="283" yMin="280" xMax="476" yMax="461">
      <component glyphName="beatingHeart" x="132" y="-1" flags="0x4"/>
    </TTGlyph>
    <TTGlyph name="B" xMin="50" yMin="-31" xMax="492" yMax="723">
      <contour>
        <pt x="324" y="354" on="1"/>
        <pt x="324" y="338" on="0"/>
        <pt x="360" y="306" on="0"/>
        <pt x="411" y="274" on="0"/>
        <pt x="462" y="242" on="0"/>
        <pt x="492" y="213" on="0"/>
        <pt x="488" y="199" on="1"/>
        <pt x="468" y="132" on="0"/>
        <pt x="395" y="28" on="0"/>
        <pt x="299" y="-31" on="0"/>
        <pt x="245" y="-31" on="1"/>
        <pt x="171" y="-31" on="0"/>
        <pt x="86" y="66" on="0"/>
        <pt x="50" y="233" on="0"/>
        <pt x="50" y="337" on="1"/>
        <pt x="50" y="415" on="0"/>
        <pt x="70" y="554" on="0"/>
        <pt x="115" y="662" on="0"/>
        <pt x="190" y="723" on="0"/>
        <pt x="245" y="723" on="1"/>
        <pt x="318" y="723" on="0"/>
        <pt x="441" y="618" on="0"/>
        <pt x="475" y="532" on="1"/>
        <pt x="481" y="516" on="0"/>
        <pt x="455" y="482" on="0"/>
        <pt x="408" y="448" on="0"/>
        <pt x="358" y="412" on="0"/>
        <pt x="324" y="374" on="0"/>
      </contour>
      <contour>
        <pt x="352" y="541" on="1"/>
        <pt x="352" y="565" on="0"/>
        <pt x="291" y="600" on="0"/>
        <pt x="248" y="600" on="1"/>
        <pt x="205" y="600" on="0"/>
        <pt x="144" y="565" on="0"/>
        <pt x="144" y="541" on="1"/>
        <pt x="144" y="529" on="0"/>
        <pt x="158" y="484" on="0"/>
        <pt x="183" y="437" on="0"/>
        <pt x="218" y="404" on="0"/>
        <pt x="239" y="404" on="1"/>
        <pt x="260" y="404" on="0"/>
        <pt x="301" y="437" on="0"/>
        <pt x="333" y="484" on="0"/>
        <pt x="352" y="529" on="0"/>
      </contour>
      <contour>
        <pt x="374" y="147" on="1"/>
        <pt x="374" y="163" on="0"/>
        <pt x="356" y="214" on="0"/>
        <pt x="322" y="265" on="0"/>
        <pt x="276" y="300" on="0"/>
        <pt x="249" y="300" on="1"/>
        <pt x="222" y="300" on="0"/>
        <pt x="181" y="266" on="0"/>
        <pt x="154" y="216" on="0"/>
        <pt x="140" y="166" on="0"/>
        <pt x="140" y="149" on="1"/>
        <pt x="140" y="117" on="0"/>
        <pt x="188" y="68" on="0"/>
        <pt x="243" y="68" on="1"/>
        <pt x="297" y="68" on="0"/>
        <pt x="374" y="114" on="0"/>
      </contour>
    </TTGlyph>
    <TTGlyph name="B.0" xMin="50" yMin="-31" xMax="492" yMax="723">
      <component glyphName="B" x="0" y="0" flags="0x204"/>
    </TTGlyph>
    <TTGlyph name="B.1" xMin="156" yMin="252" xMax="349" yMax="433">
      <component glyphName="beatingHeart" x="5" y="-29" flags="0x4"/>
    </TTGlyph>
    <TTGlyph name="C" xMin="54" yMin="20" xMax="499" yMax="758">
      <contour>
        <pt x="178" y="385" on="1"/>
        <pt x="178" y="339" on="0"/>
        <pt x="221" y="256" on="0"/>
        <pt x="290" y="182" on="0"/>
        <pt x="369" y="121" on="0"/>
        <pt x="440" y="72" on="0"/>
        <pt x="489" y="38" on="0"/>
        <pt x="499" y="20" on="0"/>
        <pt x="475" y="20" on="1"/>
        <pt x="447" y="20" on="0"/>
        <pt x="364" y="44" on="0"/>
        <pt x="269" y="88" on="0"/>
        <pt x="176" y="152" on="0"/>
        <pt x="100" y="233" on="0"/>
        <pt x="54" y="328" on="0"/>
        <pt x="54" y="381" on="1"/>
        <pt x="54" y="445" on="0"/>
        <pt x="106" y="559" on="0"/>
        <pt x="191" y="653" on="0"/>
        <pt x="288" y="721" on="0"/>
        <pt x="381" y="758" on="0"/>
        <pt x="414" y="758" on="1"/>
        <pt x="442" y="758" on="0"/>
        <pt x="429" y="733" on="0"/>
        <pt x="375" y="685" on="0"/>
        <pt x="300" y="618" on="0"/>
        <pt x="227" y="535" on="0"/>
        <pt x="178" y="439" on="0"/>
      </contour>
    </TTGlyph>
    <TTGlyph name="C.0" xMin="54" yMin="20" xMax="499" yMax="758">
      <component glyphName="C" x="0" y="0" flags="0x4"/>
    </TTGlyph>
    <TTGlyph name="C.1" xMin="125" yMin="266" xMax="318" yMax="447">
      <component glyphName="beatingHeart" x="-26" y="-15" flags="0x4"/>
    </TTGlyph>
    <TTGlyph name="D" xMin="48" yMin="13" xMax="580" yMax="758">
      <contour>
        <pt x="580" y="364" on="1"/>
        <pt x="580" y="302" on="0"/>
        <pt x="517" y="195" on="0"/>
        <pt x="415" y="108" on="0"/>
        <pt x="298" y="46" on="0"/>
        <pt x="190" y="13" on="0"/>
        <pt x="152" y="13" on="1"/>
        <pt x="105" y="13" on="0"/>
        <pt x="62" y="72" on="0"/>
        <pt x="51" y="175" on="0"/>
        <pt x="55" y="311" on="0"/>
        <pt x="55" y="388" on="1"/>
        <pt x="55" y="465" on="0"/>
        <pt x="48" y="599" on="0"/>
        <pt x="56" y="701" on="0"/>
        <pt x="96" y="758" on="0"/>
        <pt x="143" y="758" on="1"/>
        <pt x="174" y="758" on="0"/>
        <pt x="262" y="728" on="0"/>
        <pt x="361" y="675" on="0"/>
        <pt x="456" y="601" on="0"/>
        <pt x="534" y="513" on="0"/>
        <pt x="580" y="415" on="0"/>
      </contour>
      <contour>
        <pt x="476" y="353" on="1"/>
        <pt x="476" y="413" on="0"/>
        <pt x="437" y="517" on="0"/>
        <pt x="369" y="596" on="0"/>
        <pt x="279" y="641" on="0"/>
        <pt x="227" y="641" on="1"/>
        <pt x="196" y="641" on="0"/>
        <pt x="146" y="569" on="0"/>
        <pt x="116" y="448" on="0"/>
        <pt x="116" y="374" on="1"/>
        <pt x="116" y="311" on="0"/>
        <pt x="147" y="208" on="0"/>
        <pt x="199" y="146" on="0"/>
        <pt x="230" y="146" on="1"/>
        <pt x="298" y="146" on="0"/>
        <pt x="410" y="202" on="0"/>
        <pt x="476" y="296" on="0"/>
      </contour>
    </TTGlyph>
    <TTGlyph name="D.0" xMin="48" yMin="13" xMax="580" yMax="758">
      <component glyphName="D" x="0" y="0" flags="0x204"/>
    </TTGlyph>
    <TTGlyph name="D.1" xMin="202" yMin="258" xMax="395" yMax="439">
      <component glyphName="beatingHeart" x="51" y="-23" flags="0x4"/>
    </TTGlyph>
    <TTGlyph name="E" xMin="93" yMin="-13" xMax="419" yMax="743">
      <contour>
        <pt x="406" y="372" on="1"/>
        <pt x="406" y="357" on="0"/>
        <pt x="360" y="339" on="0"/>
        <pt x="292" y="328" on="0"/>
        <pt x="222" y="318" on="0"/>
        <pt x="171" y="302" on="0"/>
        <pt x="167" y="289" on="1"/>
        <pt x="165" y="283" on="0"/>
        <pt x="162" y="243" on="0"/>
        <pt x="169" y="186" on="0"/>
        <pt x="193" y="124" on="0"/>
        <pt x="217" y="97" on="1"/>
        <pt x="237" y="75" on="0"/>
        <pt x="290" y="53" on="0"/>
        <pt x="345" y="46" on="0"/>
        <pt x="392" y="45" on="0"/>
        <pt x="419" y="45" on="0"/>
        <pt x="417" y="41" on="1"/>
        <pt x="400" y="9" on="0"/>
        <pt x="340" y="-13" on="0"/>
        <pt x="274" y="-10" on="0"/>
        <pt x="218" y="0" on="0"/>
        <pt x="205" y="0" on="1"/>
        <pt x="182" y="0" on="0"/>
        <pt x="141" y="58" on="0"/>
        <pt x="110" y="160" on="0"/>
        <pt x="93" y="295" on="0"/>
        <pt x="93" y="372" on="1"/>
        <pt x="93" y="449" on="0"/>
        <pt x="110" y="583" on="0"/>
        <pt x="141" y="685" on="0"/>
        <pt x="182" y="743" on="0"/>
        <pt x="205" y="743" on="1"/>
        <pt x="219" y="743" on="0"/>
        <pt x="275" y="733" on="0"/>
        <pt x="334" y="703" on="0"/>
        <pt x="354" y="673" on="1"/>
        <pt x="357" y="668" on="0"/>
        <pt x="323" y="665" on="0"/>
        <pt x="269" y="661" on="0"/>
        <pt x="213" y="650" on="0"/>
        <pt x="195" y="638" on="1"/>
        <pt x="174" y="624" on="0"/>
        <pt x="152" y="570" on="0"/>
        <pt x="144" y="509" on="0"/>
        <pt x="146" y="461" on="0"/>
        <pt x="149" y="453" on="1"/>
        <pt x="155" y="437" on="0"/>
        <pt x="211" y="423" on="0"/>
        <pt x="286" y="417" on="0"/>
        <pt x="358" y="410" on="0"/>
        <pt x="406" y="392" on="0"/>
      </contour>
    </TTGlyph>
    <TTGlyph name="E.0" xMin="93" yMin="-13" xMax="419" yMax="743">
      <component glyphName="E" x="0" y="0" flags="0x204"/>
    </TTGlyph>
    <TTGlyph name="E.1" xMin="79" yMin="247" xMax="272" yMax="428">
      <component glyphName="beatingHeart" x="-72" y="-34" flags="0x4"/>
    </TTGlyph>
    <TTGlyph name="F" xMin="75" yMin="-4" xMax="467" yMax="736">
      <contour>
        <pt x="285" y="431" on="1"/>
        <pt x="290" y="424" on="0"/>
        <pt x="267" y="417" on="0"/>
        <pt x="226" y="413" on="0"/>
        <pt x="183" y="407" on="0"/>
        <pt x="153" y="399" on="0"/>
        <pt x="153" y="391" on="1"/>
        <pt x="151" y="341" on="0"/>
        <pt x="156" y="232" on="0"/>
        <pt x="165" y="129" on="0"/>
        <pt x="170" y="45" on="0"/>
        <pt x="165" y="-4" on="0"/>
        <pt x="154" y="-4" on="1"/>
        <pt x="138" y="-4" on="0"/>
        <pt x="109" y="53" on="0"/>
        <pt x="87" y="155" on="0"/>
        <pt x="75" y="289" on="0"/>
        <pt x="75" y="366" on="1"/>
        <pt x="75" y="443" on="0"/>
        <pt x="87" y="577" on="0"/>
        <pt x="109" y="678" on="0"/>
        <pt x="138" y="736" on="0"/>
        <pt x="154" y="736" on="1"/>
        <pt x="159" y="736" on="0"/>
        <pt x="205" y="732" on="0"/>
        <pt x="274" y="725" on="0"/>
        <pt x="349" y="714" on="0"/>
        <pt x="417" y="699" on="0"/>
        <pt x="462" y="679" on="0"/>
        <pt x="465" y="667" on="1"/>
        <pt x="467" y="661" on="0"/>
        <pt x="419" y="651" on="0"/>
        <pt x="343" y="642" on="0"/>
        <pt x="256" y="632" on="0"/>
        <pt x="179" y="621" on="0"/>
        <pt x="131" y="608" on="0"/>
        <pt x="132" y="600" on="1"/>
        <pt x="135" y="578" on="0"/>
        <pt x="164" y="542" on="0"/>
        <pt x="207" y="507" on="0"/>
        <pt x="259" y="463" on="0"/>
      </contour>
    </TTGlyph>
    <TTGlyph name="F.0" xMin="75" yMin="-4" xMax="467" yMax="736">
      <component glyphName="F" x="0" y="0" flags="0x204"/>
    </TTGlyph>
    <TTGlyph name="F.1" xMin="82" yMin="278" xMax="275" yMax="459">
      <component glyphName="beatingHeart" x="-69" y="-3" flags="0x4"/>
    </TTGlyph>
    <TTGlyph name="G" xMin="62" yMin="8" xMax="442" yMax="753">
      <contour>
        <pt x="422" y="381" on="1"/>
        <pt x="438" y="378" on="0"/>
        <pt x="442" y="322" on="0"/>
        <pt x="428" y="237" on="0"/>
        <pt x="401" y="143" on="0"/>
        <pt x="366" y="60" on="0"/>
        <pt x="331" y="8" on="0"/>
        <pt x="316" y="8" on="1"/>
        <pt x="298" y="8" on="0"/>
        <pt x="237" y="46" on="0"/>
        <pt x="166" y="115" on="0"/>
        <pt x="103" y="209" on="0"/>
        <pt x="62" y="321" on="0"/>
        <pt x="62" y="383" on="1"/>
        <pt x="62" y="460" on="0"/>
        <pt x="103" y="596" on="0"/>
        <pt x="164" y="698" on="0"/>
        <pt x="227" y="753" on="0"/>
        <pt x="249" y="750" on="1"/>
        <pt x="312" y="742" on="0"/>
        <pt x="353" y="721" on="0"/>
        <pt x="307" y="692" on="0"/>
        <pt x="237" y="669" on="1"/>
        <pt x="208" y="660" on="0"/>
        <pt x="162" y="596" on="0"/>
        <pt x="129" y="507" on="0"/>
        <pt x="109" y="414" on="0"/>
        <pt x="105" y="334" on="0"/>
        <pt x="111" y="312" on="1"/>
        <pt x="121" y="276" on="0"/>
        <pt x="168" y="211" on="0"/>
        <pt x="224" y="161" on="0"/>
        <pt x="271" y="132" on="0"/>
        <pt x="280" y="133" on="1"/>
        <pt x="289" y="134" on="0"/>
        <pt x="329" y="148" on="0"/>
        <pt x="366" y="185" on="0"/>
        <pt x="379" y="252" on="0"/>
        <pt x="362" y="304" on="1"/>
        <pt x="356" y="322" on="0"/>
        <pt x="367" y="352" on="0"/>
        <pt x="390" y="373" on="0"/>
        <pt x="415" y="383" on="0"/>
      </contour>
    </TTGlyph>
    <TTGlyph name="G.0" xMin="62" yMin="8" xMax="442" yMax="753">
      <component glyphName="G" x="0" y="0" flags="0x204"/>
    </TTGlyph>
    <TTGlyph name="G.1" xMin="90" yMin="247" xMax="283" yMax="428">
      <component glyphName="beatingHeart" x="-61" y="-34" flags="0x4"/>
    </TTGlyph>
    <TTGlyph name="H" xMin="61" yMin="-11" xMax="450" yMax="769">
      <contour>
        <pt x="450" y="383" on="1"/>
        <pt x="450" y="358" on="0"/>
        <pt x="445" y="280" on="0"/>
        <pt x="437" y="189" on="0"/>
        <pt x="424" y="100" on="0"/>
        <pt x="408" y="29" on="0"/>
        <pt x="399" y="11" on="1"/>
        <pt x="389" y="-9" on="0"/>
        <pt x="377" y="8" on="0"/>
        <pt x="372" y="63" on="0"/>
        <pt x="370" y="142" on="0"/>
        <pt x="369" y="225" on="0"/>
        <pt x="366" y="298" on="0"/>
        <pt x="359" y="344" on="0"/>
        <pt x="352" y="344" on="1"/>
        <pt x="349" y="344" on="0"/>
        <pt x="314" y="350" on="0"/>
        <pt x="264" y="355" on="0"/>
        <pt x="214" y="355" on="0"/>
        <pt x="177" y="344" on="0"/>
        <pt x="173" y="330" on="1"/>
        <pt x="163" y="293" on="0"/>
        <pt x="149" y="193" on="0"/>
        <pt x="139" y="93" on="0"/>
        <pt x="130" y="17" on="0"/>
        <pt x="117" y="-11" on="0"/>
        <pt x="107" y="11" on="1"/>
        <pt x="99" y="29" on="0"/>
        <pt x="85" y="101" on="0"/>
        <pt x="74" y="191" on="0"/>
        <pt x="66" y="284" on="0"/>
        <pt x="61" y="362" on="0"/>
        <pt x="61" y="385" on="1"/>
        <pt x="61" y="420" on="0"/>
        <pt x="65" y="522" on="0"/>
        <pt x="75" y="629" on="0"/>
        <pt x="93" y="720" on="0"/>
        <pt x="106" y="744" on="1"/>
        <pt x="110" y="753" on="0"/>
        <pt x="134" y="758" on="0"/>
        <pt x="159" y="752" on="0"/>
        <pt x="162" y="744" on="1"/>
        <pt x="171" y="723" on="0"/>
        <pt x="171" y="653" on="0"/>
        <pt x="165" y="569" on="0"/>
        <pt x="165" y="484" on="0"/>
        <pt x="174" y="449" on="1"/>
        <pt x="177" y="438" on="0"/>
        <pt x="218" y="429" on="0"/>
        <pt x="277" y="431" on="0"/>
        <pt x="335" y="441" on="0"/>
        <pt x="377" y="455" on="0"/>
        <pt x="380" y="462" on="1"/>
        <pt x="382" y="467" on="0"/>
        <pt x="375" y="520" on="0"/>
        <pt x="364" y="596" on="0"/>
        <pt x="355" y="675" on="0"/>
        <pt x="352" y="736" on="0"/>
        <pt x="358" y="748" on="1"/>
        <pt x="362" y="757" on="0"/>
        <pt x="382" y="769" on="0"/>
        <pt x="406" y="762" on="0"/>
        <pt x="417" y="740" on="1"/>
        <pt x="427" y="721" on="0"/>
        <pt x="439" y="653" on="0"/>
        <pt x="446" y="569" on="0"/>
        <pt x="449" y="482" on="0"/>
        <pt x="450" y="407" on="0"/>
      </contour>
    </TTGlyph>
    <TTGlyph name="H.0" xMin="61" yMin="-11" xMax="450" yMax="769">
      <component glyphName="H" x="0" y="0" flags="0x204"/>
    </TTGlyph>
    <TTGlyph name="H.1" xMin="147" yMin="289" xMax="340" yMax="470">
      <component glyphName="beatingHeart" x="-4" y="8" flags="0x4"/>
    </TTGlyph>
    <TTGlyph name="I" xMin="48" yMin="-3" xMax="245" yMax="745">
      <contour>
        <pt x="195" y="374" on="1"/>
        <pt x="195" y="312" on="0"/>
        <pt x="190" y="202" on="0"/>
        <pt x="185" y="156" on="1"/>
        <pt x="185" y="151" on="0"/>
        <pt x="181" y="129" on="0"/>
        <pt x="176" y="103" on="0"/>
        <pt x="171" y="82" on="0"/>
        <pt x="170" y="77" on="1"/>
        <pt x="170" y="76" on="0"/>
        <pt x="202" y="64" on="0"/>
        <pt x="236" y="48" on="0"/>
        <pt x="240" y="40" on="1"/>
        <pt x="245" y="32" on="0"/>
        <pt x="238" y="6" on="0"/>
        <pt x="231" y="1" on="1"/>
        <pt x="228" y="-1" on="0"/>
        <pt x="194" y="-3" on="0"/>
        <pt x="148" y="-3" on="0"/>
        <pt x="102" y="-1" on="0"/>
        <pt x="70" y="0" on="0"/>
        <pt x="68" y="1" on="1"/>
        <pt x="60" y="3" on="0"/>
        <pt x="54" y="32" on="0"/>
        <pt x="57" y="40" on="1"/>
        <pt x="59" y="43" on="0"/>
        <pt x="74" y="53" on="0"/>
        <pt x="95" y="60" on="0"/>
        <pt x="114" y="59" on="0"/>
        <pt x="118" y="50" on="1"/>
        <pt x="120" y="47" on="0"/>
        <pt x="117" y="77" on="0"/>
        <pt x="112" y="121" on="0"/>
        <pt x="108" y="157" on="0"/>
        <pt x="107" y="160" on="1"/>
        <pt x="104" y="205" on="0"/>
        <pt x="98" y="314" on="0"/>
        <pt x="98" y="374" on="1"/>
        <pt x="98" y="402" on="0"/>
        <pt x="101" y="479" on="0"/>
        <pt x="104" y="562" on="0"/>
        <pt x="104" y="640" on="0"/>
        <pt x="101" y="669" on="1"/>
        <pt x="100" y="677" on="0"/>
        <pt x="76" y="686" on="0"/>
        <pt x="52" y="693" on="0"/>
        <pt x="52" y="698" on="1"/>
        <pt x="53" y="710" on="0"/>
        <pt x="48" y="729" on="0"/>
        <pt x="52" y="738" on="1"/>
        <pt x="54" y="740" on="0"/>
        <pt x="79" y="743" on="0"/>
        <pt x="114" y="744" on="0"/>
        <pt x="143" y="745" on="0"/>
        <pt x="147" y="745" on="1"/>
        <pt x="153" y="745" on="0"/>
        <pt x="192" y="744" on="0"/>
        <pt x="230" y="739" on="0"/>
        <pt x="235" y="733" on="1"/>
        <pt x="241" y="726" on="0"/>
        <pt x="237" y="698" on="0"/>
        <pt x="237" y="687" on="1"/>
        <pt x="238" y="682" on="0"/>
        <pt x="216" y="681" on="0"/>
        <pt x="193" y="679" on="0"/>
        <pt x="192" y="671" on="1"/>
        <pt x="190" y="642" on="0"/>
        <pt x="190" y="563" on="0"/>
        <pt x="193" y="478" on="0"/>
        <pt x="195" y="401" on="0"/>
      </contour>
    </TTGlyph>
    <TTGlyph name="I.0" xMin="101" yMin="-3" xMax="298" yMax="745">
      <component glyphName="I" x="53" y="0" flags="0x4"/>
    </TTGlyph>
    <TTGlyph name="I.1" xMin="82" yMin="278" xMax="275" yMax="459">
      <component glyphName="beatingHeart" x="-69" y="-3" flags="0x4"/>
    </TTGlyph>
    <TTGlyph name="J" xMin="80" yMin="-2" xMax="417" yMax="745">
      <contour>
        <pt x="417" y="372" on="1"/>
        <pt x="417" y="294" on="0"/>
        <pt x="408" y="159" on="0"/>
        <pt x="392" y="56" on="0"/>
        <pt x="371" y="-2" on="0"/>
        <pt x="359" y="-2" on="1"/>
        <pt x="354" y="-2" on="0"/>
        <pt x="312" y="28" on="0"/>
        <pt x="251" y="77" on="0"/>
        <pt x="184" y="137" on="0"/>
        <pt x="124" y="199" on="0"/>
        <pt x="84" y="254" on="0"/>
        <pt x="81" y="273" on="1"/>
        <pt x="80" y="282" on="0"/>
        <pt x="115" y="261" on="0"/>
        <pt x="171" y="220" on="0"/>
        <pt x="235" y="172" on="0"/>
        <pt x="292" y="133" on="0"/>
        <pt x="328" y="116" on="0"/>
        <pt x="327" y="127" on="1"/>
        <pt x="326" y="142" on="0"/>
        <pt x="324" y="207" on="0"/>
        <pt x="322" y="283" on="0"/>
        <pt x="321" y="350" on="0"/>
        <pt x="321" y="368" on="1"/>
        <pt x="321" y="445" on="0"/>
        <pt x="324" y="582" on="0"/>
        <pt x="332" y="686" on="0"/>
        <pt x="346" y="745" on="0"/>
        <pt x="359" y="745" on="1"/>
        <pt x="371" y="745" on="0"/>
        <pt x="392" y="687" on="0"/>
        <pt x="408" y="584" on="0"/>
        <pt x="417" y="449" on="0"/>
      </contour>
    </TTGlyph>
    <TTGlyph name="J.0" xMin="80" yMin="-2" xMax="417" yMax="745">
      <component glyphName="J" x="0" y="0" flags="0x204"/>
    </TTGlyph>
    <TTGlyph name="J.1" xMin="225" yMin="290" xMax="418" yMax="471">
      <component glyphName="beatingHeart" x="74" y="9" flags="0x4"/>
    </TTGlyph>
    <TTGlyph name="K" xMin="63" yMin="-4" xMax="440" yMax="743">
      <contour>
        <pt x="409" y="573" on="1"/>
        <pt x="409" y="560" on="0"/>
        <pt x="371" y="535" on="0"/>
        <pt x="310" y="509" on="0"/>
        <pt x="241" y="484" on="0"/>
        <pt x="179" y="460" on="0"/>
        <pt x="139" y="437" on="0"/>
        <pt x="137" y="426" on="1"/>
        <pt x="136" y="421" on="0"/>
        <pt x="178" y="369" on="0"/>
        <pt x="246" y="291" on="0"/>
        <pt x="323" y="201" on="0"/>
        <pt x="392" y="112" on="0"/>
        <pt x="437" y="39" on="0"/>
        <pt x="439" y="17" on="1"/>
        <pt x="440" y="7" on="0"/>
        <pt x="411" y="-4" on="0"/>
        <pt x="375" y="-3" on="0"/>
        <pt x="365" y="4" on="1"/>
        <pt x="359" y="9" on="0"/>
        <pt x="326" y="60" on="0"/>
        <pt x="279" y="133" on="0"/>
        <pt x="229" y="214" on="0"/>
        <pt x="181" y="285" on="0"/>
        <pt x="145" y="331" on="0"/>
        <pt x="137" y="332" on="1"/>
        <pt x="127" y="334" on="0"/>
        <pt x="125" y="288" on="0"/>
        <pt x="134" y="216" on="0"/>
        <pt x="149" y="133" on="0"/>
        <pt x="162" y="59" on="0"/>
        <pt x="167" y="12" on="0"/>
        <pt x="162" y="12" on="1"/>
        <pt x="129" y="12" on="0"/>
        <pt x="85" y="107" on="0"/>
        <pt x="63" y="271" on="0"/>
        <pt x="63" y="373" on="1"/>
        <pt x="63" y="450" on="0"/>
        <pt x="82" y="584" on="0"/>
        <pt x="115" y="685" on="0"/>
        <pt x="158" y="743" on="0"/>
        <pt x="183" y="743" on="1"/>
        <pt x="200" y="743" on="0"/>
        <pt x="192" y="711" on="0"/>
        <pt x="167" y="654" on="0"/>
        <pt x="149" y="578" on="0"/>
        <pt x="156" y="535" on="1"/>
        <pt x="157" y="528" on="0"/>
        <pt x="194" y="540" on="0"/>
        <pt x="250" y="566" on="0"/>
        <pt x="313" y="597" on="0"/>
        <pt x="369" y="623" on="0"/>
        <pt x="405" y="634" on="0"/>
        <pt x="405" y="627" on="1"/>
        <pt x="407" y="612" on="0"/>
        <pt x="408" y="601" on="0"/>
        <pt x="409" y="589" on="0"/>
      </contour>
    </TTGlyph>
    <TTGlyph name="K.0" xMin="63" yMin="-4" xMax="440" yMax="743">
      <component glyphName="K" x="0" y="0" flags="0x4"/>
    </TTGlyph>
    <TTGlyph name="K.1" xMin="115" yMin="285" xMax="308" yMax="466">
      <component glyphName="beatingHeart" x="-36" y="4" flags="0x4"/>
    </TTGlyph>
    <TTGlyph name="L" xMin="54" yMin="7" xMax="542" yMax="746">
      <contour>
        <pt x="151" y="136" on="1"/>
        <pt x="151" y="124" on="0"/>
        <pt x="203" y="109" on="0"/>
        <pt x="284" y="100" on="0"/>
        <pt x="377" y="95" on="0"/>
        <pt x="461" y="91" on="0"/>
        <pt x="518" y="89" on="0"/>
        <pt x="521" y="86" on="1"/>
        <pt x="535" y="77" on="0"/>
        <pt x="542" y="65" on="0"/>
        <pt x="532" y="52" on="0"/>
        <pt x="519" y="40" on="1"/>
        <pt x="506" y="29" on="0"/>
        <pt x="439" y="15" on="0"/>
        <pt x="351" y="9" on="0"/>
        <pt x="260" y="7" on="0"/>
        <pt x="186" y="7" on="0"/>
        <pt x="167" y="7" on="1"/>
        <pt x="129" y="7" on="0"/>
        <pt x="89" y="57" on="0"/>
        <pt x="74" y="151" on="0"/>
        <pt x="72" y="279" on="0"/>
        <pt x="72" y="357" on="1"/>
        <pt x="72" y="435" on="0"/>
        <pt x="59" y="575" on="0"/>
        <pt x="54" y="684" on="0"/>
        <pt x="79" y="746" on="0"/>
        <pt x="117" y="746" on="1"/>
        <pt x="143" y="746" on="0"/>
        <pt x="168" y="686" on="0"/>
        <pt x="175" y="583" on="0"/>
        <pt x="170" y="455" on="0"/>
        <pt x="160" y="318" on="0"/>
        <pt x="151" y="188" on="0"/>
      </contour>
    </TTGlyph>
    <TTGlyph name="L.0" xMin="54" yMin="7" xMax="542" yMax="746">
      <component glyphName="L" x="0" y="0" flags="0x204"/>
    </TTGlyph>
    <TTGlyph name="L.1" xMin="88" yMin="263" xMax="281" yMax="444">
      <component glyphName="beatingHeart" x="-63" y="-18" flags="0x4"/>
    </TTGlyph>
    <TTGlyph name="M" xMin="55" yMin="-15" xMax="937" yMax="748">
      <contour>
        <pt x="937" y="40" on="1"/>
        <pt x="937" y="4" on="0"/>
        <pt x="931" y="-15" on="0"/>
        <pt x="910" y="7" on="0"/>
        <pt x="885" y="33" on="1"/>
        <pt x="872" y="47" on="0"/>
        <pt x="854" y="121" on="0"/>
        <pt x="840" y="223" on="0"/>
        <pt x="828" y="337" on="0"/>
        <pt x="817" y="445" on="0"/>
        <pt x="804" y="531" on="0"/>
        <pt x="788" y="577" on="0"/>
        <pt x="776" y="572" on="1"/>
        <pt x="764" y="567" on="0"/>
        <pt x="728" y="504" on="0"/>
        <pt x="684" y="409" on="0"/>
        <pt x="635" y="298" on="0"/>
        <pt x="586" y="189" on="0"/>
        <pt x="540" y="99" on="0"/>
        <pt x="500" y="44" on="0"/>
        <pt x="485" y="44" on="1"/>
        <pt x="467" y="44" on="0"/>
        <pt x="425" y="95" on="0"/>
        <pt x="379" y="181" on="0"/>
        <pt x="333" y="284" on="0"/>
        <pt x="287" y="390" on="0"/>
        <pt x="246" y="482" on="0"/>
        <pt x="210" y="544" on="0"/>
        <pt x="196" y="552" on="1"/>
        <pt x="187" y="557" on="0"/>
        <pt x="178" y="508" on="0"/>
        <pt x="172" y="421" on="0"/>
        <pt x="168" y="313" on="0"/>
        <pt x="162" y="202" on="0"/>
        <pt x="152" y="105" on="0"/>
        <pt x="136" y="39" on="0"/>
        <pt x="123" y="31" on="1"/>
        <pt x="92" y="13" on="0"/>
        <pt x="64" y="4" on="0"/>
        <pt x="57" y="32" on="0"/>
        <pt x="57" y="68" on="1"/>
        <pt x="57" y="91" on="0"/>
        <pt x="55" y="176" on="0"/>
        <pt x="55" y="283" on="0"/>
        <pt x="58" y="401" on="0"/>
        <pt x="67" y="516" on="0"/>
        <pt x="85" y="615" on="0"/>
        <pt x="114" y="684" on="0"/>
        <pt x="135" y="697" on="1"/>
        <pt x="147" y="705" on="0"/>
        <pt x="185" y="710" on="0"/>
        <pt x="223" y="704" on="0"/>
        <pt x="235" y="695" on="1"/>
        <pt x="247" y="686" on="0"/>
        <pt x="279" y="622" on="0"/>
        <pt x="316" y="530" on="0"/>
        <pt x="356" y="426" on="0"/>
        <pt x="395" y="323" on="0"/>
        <pt x="432" y="239" on="0"/>
        <pt x="464" y="189" on="0"/>
        <pt x="476" y="189" on="1"/>
        <pt x="486" y="189" on="0"/>
        <pt x="524" y="243" on="0"/>
        <pt x="574" y="333" on="0"/>
        <pt x="631" y="442" on="0"/>
        <pt x="688" y="553" on="0"/>
        <pt x="740" y="650" on="0"/>
        <pt x="780" y="714" on="0"/>
        <pt x="791" y="721" on="1"/>
        <pt x="816" y="737" on="0"/>
        <pt x="841" y="748" on="0"/>
        <pt x="858" y="734" on="0"/>
        <pt x="871" y="710" on="1"/>
        <pt x="882" y="690" on="0"/>
        <pt x="900" y="608" on="0"/>
        <pt x="914" y="498" on="0"/>
        <pt x="924" y="375" on="0"/>
        <pt x="931" y="252" on="0"/>
        <pt x="935" y="143" on="0"/>
        <pt x="937" y="60" on="0"/>
      </contour>
    </TTGlyph>
    <TTGlyph name="M.0" xMin="55" yMin="-15" xMax="937" yMax="748">
      <component glyphName="M" x="0" y="0" flags="0x204"/>
    </TTGlyph>
    <TTGlyph name="M.1" xMin="400" yMin="256" xMax="593" yMax="437">
      <component glyphName="beatingHeart" x="249" y="-25" flags="0x4"/>
    </TTGlyph>
    <TTGlyph name="N" xMin="39" yMin="-29" xMax="611" yMax="857">
      <contour>
        <pt x="586" y="21" on="1"/>
        <pt x="575" y="-3" on="0"/>
        <pt x="540" y="-16" on="0"/>
        <pt x="503" y="-8" on="0"/>
        <pt x="476" y="7" on="0"/>
        <pt x="473" y="11" on="1"/>
        <pt x="456" y="32" on="0"/>
        <pt x="409" y="128" on="0"/>
        <pt x="352" y="256" on="0"/>
        <pt x="292" y="397" on="0"/>
        <pt x="233" y="531" on="0"/>
        <pt x="179" y="641" on="0"/>
        <pt x="136" y="706" on="0"/>
        <pt x="122" y="706" on="1"/>
        <pt x="112" y="706" on="0"/>
        <pt x="107" y="637" on="0"/>
        <pt x="113" y="523" on="0"/>
        <pt x="125" y="383" on="0"/>
        <pt x="139" y="239" on="0"/>
        <pt x="151" y="112" on="0"/>
        <pt x="157" y="22" on="0"/>
        <pt x="155" y="7" on="1"/>
        <pt x="151" y="-18" on="0"/>
        <pt x="127" y="-29" on="0"/>
        <pt x="102" y="-16" on="0"/>
        <pt x="96" y="-6" on="1"/>
        <pt x="86" y="11" on="0"/>
        <pt x="68" y="104" on="0"/>
        <pt x="54" y="234" on="0"/>
        <pt x="44" y="384" on="0"/>
        <pt x="39" y="537" on="0"/>
        <pt x="40" y="673" on="0"/>
        <pt x="47" y="776" on="0"/>
        <pt x="54" y="801" on="1"/>
        <pt x="60" y="821" on="0"/>
        <pt x="90" y="856" on="0"/>
        <pt x="132" y="857" on="0"/>
        <pt x="156" y="825" on="1"/>
        <pt x="172" y="804" on="0"/>
        <pt x="220" y="706" on="0"/>
        <pt x="279" y="575" on="0"/>
        <pt x="341" y="430" on="0"/>
        <pt x="403" y="291" on="0"/>
        <pt x="457" y="178" on="0"/>
        <pt x="499" y="111" on="0"/>
        <pt x="511" y="111" on="1"/>
        <pt x="526" y="111" on="0"/>
        <pt x="542" y="182" on="0"/>
        <pt x="547" y="300" on="0"/>
        <pt x="545" y="443" on="0"/>
        <pt x="539" y="589" on="0"/>
        <pt x="535" y="716" on="0"/>
        <pt x="535" y="801" on="0"/>
        <pt x="540" y="811" on="1"/>
        <pt x="545" y="821" on="0"/>
        <pt x="556" y="833" on="0"/>
        <pt x="577" y="816" on="0"/>
        <pt x="597" y="782" on="1"/>
        <pt x="601" y="776" on="0"/>
        <pt x="606" y="694" on="0"/>
        <pt x="610" y="568" on="0"/>
        <pt x="611" y="418" on="0"/>
        <pt x="608" y="266" on="0"/>
        <pt x="603" y="131" on="0"/>
        <pt x="593" y="37" on="0"/>
      </contour>
    </TTGlyph>
    <TTGlyph name="N.0" xMin="39" yMin="-29" xMax="611" yMax="857">
      <component glyphName="N" x="0" y="0" flags="0x4"/>
    </TTGlyph>
    <TTGlyph name="N.1" xMin="257" yMin="267" xMax="450" yMax="448">
      <component glyphName="beatingHeart" x="106" y="-14" flags="0x4"/>
    </TTGlyph>
    <TTGlyph name="O" xMin="138" yMin="-9" xMax="700" yMax="742">
      <contour>
        <pt x="700" y="367" on="1"/>
        <pt x="700" y="289" on="0"/>
        <pt x="656" y="153" on="0"/>
        <pt x="579" y="49" on="0"/>
        <pt x="477" y="-9" on="0"/>
        <pt x="419" y="-9" on="1"/>
        <pt x="361" y="-9" on="0"/>
        <pt x="259" y="49" on="0"/>
        <pt x="182" y="153" on="0"/>
        <pt x="138" y="289" on="0"/>
        <pt x="138" y="367" on="1"/>
        <pt x="138" y="444" on="0"/>
        <pt x="182" y="580" on="0"/>
        <pt x="259" y="684" on="0"/>
        <pt x="361" y="742" on="0"/>
        <pt x="419" y="742" on="1"/>
        <pt x="477" y="742" on="0"/>
        <pt x="579" y="684" on="0"/>
        <pt x="656" y="580" on="0"/>
        <pt x="700" y="444" on="0"/>
      </contour>
      <contour>
        <pt x="645" y="352" on="1"/>
        <pt x="645" y="433" on="0"/>
        <pt x="598" y="566" on="0"/>
        <pt x="505" y="645" on="0"/>
        <pt x="435" y="645" on="1"/>
        <pt x="366" y="645" on="0"/>
        <pt x="272" y="566" on="0"/>
        <pt x="225" y="433" on="0"/>
        <pt x="225" y="352" on="1"/>
        <pt x="225" y="271" on="0"/>
        <pt x="282" y="138" on="0"/>
        <pt x="377" y="58" on="0"/>
        <pt x="435" y="58" on="1"/>
        <pt x="493" y="58" on="0"/>
        <pt x="588" y="138" on="0"/>
        <pt x="645" y="271" on="0"/>
      </contour>
    </TTGlyph>
    <TTGlyph name="O.0" xMin="138" yMin="-9" xMax="700" yMax="742">
      <component glyphName="O" x="0" y="0" flags="0x204"/>
    </TTGlyph>
    <TTGlyph name="O.1" xMin="296" yMin="252" xMax="489" yMax="433">
      <component glyphName="beatingHeart" x="145" y="-29" flags="0x4"/>
    </TTGlyph>
    <TTGlyph name="P" xMin="89" yMin="-7" xMax="454" yMax="765">
      <contour>
        <pt x="453" y="551" on="1"/>
        <pt x="454" y="494" on="0"/>
        <pt x="420" y="434" on="0"/>
        <pt x="367" y="412" on="0"/>
        <pt x="305" y="413" on="0"/>
        <pt x="249" y="423" on="0"/>
        <pt x="209" y="425" on="0"/>
        <pt x="205" y="415" on="1"/>
        <pt x="190" y="379" on="0"/>
        <pt x="195" y="288" on="0"/>
        <pt x="220" y="193" on="0"/>
        <pt x="249" y="105" on="0"/>
        <pt x="268" y="34" on="0"/>
        <pt x="264" y="-7" on="0"/>
        <pt x="241" y="-7" on="1"/>
        <pt x="198" y="-7" on="0"/>
        <pt x="139" y="57" on="0"/>
        <pt x="104" y="168" on="0"/>
        <pt x="89" y="311" on="0"/>
        <pt x="89" y="389" on="1"/>
        <pt x="89" y="467" on="0"/>
        <pt x="96" y="603" on="0"/>
        <pt x="119" y="707" on="0"/>
        <pt x="169" y="765" on="0"/>
        <pt x="212" y="765" on="1"/>
        <pt x="247" y="765" on="0"/>
        <pt x="316" y="750" on="0"/>
        <pt x="377" y="717" on="0"/>
        <pt x="425" y="667" on="0"/>
        <pt x="453" y="597" on="0"/>
      </contour>
      <contour>
        <pt x="365" y="575" on="1"/>
        <pt x="365" y="598" on="0"/>
        <pt x="341" y="635" on="0"/>
        <pt x="300" y="657" on="0"/>
        <pt x="275" y="657" on="1"/>
        <pt x="250" y="657" on="0"/>
        <pt x="209" y="635" on="0"/>
        <pt x="185" y="598" on="0"/>
        <pt x="185" y="575" on="1"/>
        <pt x="185" y="552" on="0"/>
        <pt x="209" y="515" on="0"/>
        <pt x="250" y="493" on="0"/>
        <pt x="275" y="493" on="1"/>
        <pt x="300" y="493" on="0"/>
        <pt x="341" y="515" on="0"/>
        <pt x="365" y="552" on="0"/>
      </contour>
    </TTGlyph>
    <TTGlyph name="P.0" xMin="89" yMin="-7" xMax="454" yMax="765">
      <component glyphName="P" x="0" y="0" flags="0x204"/>
    </TTGlyph>
    <TTGlyph name="P.1" xMin="157" yMin="274" xMax="350" yMax="455">
      <component glyphName="beatingHeart" x="6" y="-7" flags="0x4"/>
    </TTGlyph>
    <TTGlyph name="Q" xMin="138" yMin="-82" xMax="726" yMax="742">
      <contour>
        <pt x="726" y="346" on="1"/>
        <pt x="726" y="306" on="0"/>
        <pt x="696" y="216" on="0"/>
        <pt x="660" y="131" on="0"/>
        <pt x="640" y="63" on="0"/>
        <pt x="651" y="44" on="1"/>
        <pt x="676" y="0" on="0"/>
        <pt x="702" y="-62" on="0"/>
        <pt x="695" y="-82" on="0"/>
        <pt x="645" y="-50" on="0"/>
        <pt x="594" y="1" on="1"/>
        <pt x="581" y="13" on="0"/>
        <pt x="541" y="9" on="0"/>
        <pt x="496" y="-9" on="0"/>
        <pt x="452" y="-26" on="0"/>
        <pt x="436" y="-26" on="1"/>
        <pt x="382" y="-26" on="0"/>
        <pt x="276" y="37" on="0"/>
        <pt x="190" y="147" on="0"/>
        <pt x="138" y="289" on="0"/>
        <pt x="138" y="367" on="1"/>
        <pt x="138" y="444" on="0"/>
        <pt x="182" y="580" on="0"/>
        <pt x="259" y="684" on="0"/>
        <pt x="361" y="742" on="0"/>
        <pt x="419" y="742" on="1"/>
        <pt x="477" y="742" on="0"/>
        <pt x="587" y="678" on="0"/>
        <pt x="674" y="566" on="0"/>
        <pt x="726" y="424" on="0"/>
      </contour>
      <contour>
        <pt x="645" y="354" on="1"/>
        <pt x="645" y="435" on="0"/>
        <pt x="588" y="568" on="0"/>
        <pt x="493" y="647" on="0"/>
        <pt x="435" y="647" on="1"/>
        <pt x="377" y="647" on="0"/>
        <pt x="282" y="568" on="0"/>
        <pt x="225" y="435" on="0"/>
        <pt x="225" y="354" on="1"/>
        <pt x="225" y="293" on="0"/>
        <pt x="254" y="179" on="0"/>
        <pt x="306" y="88" on="0"/>
        <pt x="379" y="34" on="0"/>
        <pt x="422" y="34" on="1"/>
        <pt x="432" y="34" on="0"/>
        <pt x="470" y="38" on="0"/>
        <pt x="508" y="46" on="0"/>
        <pt x="528" y="57" on="0"/>
        <pt x="520" y="64" on="1"/>
        <pt x="507" y="75" on="0"/>
        <pt x="506" y="105" on="0"/>
        <pt x="523" y="129" on="0"/>
        <pt x="551" y="133" on="0"/>
        <pt x="567" y="117" on="1"/>
        <pt x="583" y="101" on="0"/>
        <pt x="608" y="125" on="0"/>
        <pt x="626" y="183" on="0"/>
        <pt x="639" y="257" on="0"/>
        <pt x="645" y="329" on="0"/>
      </contour>
    </TTGlyph>
    <TTGlyph name="Q.0" xMin="138" yMin="-82" xMax="726" yMax="742">
      <component glyphName="Q" x="0" y="0" flags="0x204"/>
    </TTGlyph>
    <TTGlyph name="Q.1" xMin="282" yMin="259" xMax="475" yMax="440">
      <component glyphName="beatingHeart" x="131" y="-22" flags="0x4"/>
    </TTGlyph>
    <TTGlyph name="R" xMin="37" yMin="-28" xMax="550" yMax="774">
      <contour>
        <pt x="281" y="370" on="1"/>
        <pt x="281" y="347" on="0"/>
        <pt x="320" y="290" on="0"/>
        <pt x="382" y="228" on="0"/>
        <pt x="451" y="164" on="0"/>
        <pt x="512" y="102" on="0"/>
        <pt x="550" y="45" on="0"/>
        <pt x="550" y="-2" on="0"/>
        <pt x="522" y="-19" on="1"/>
        <pt x="507" y="-28" on="0"/>
        <pt x="454" y="11" on="0"/>
        <pt x="389" y="85" on="0"/>
        <pt x="319" y="173" on="0"/>
        <pt x="252" y="253" on="0"/>
        <pt x="194" y="305" on="0"/>
        <pt x="175" y="305" on="1"/>
        <pt x="158" y="305" on="0"/>
        <pt x="150" y="257" on="0"/>
        <pt x="160" y="182" on="0"/>
        <pt x="176" y="98" on="0"/>
        <pt x="189" y="23" on="0"/>
        <pt x="190" y="-24" on="0"/>
        <pt x="179" y="-24" on="1"/>
        <pt x="121" y="-24" on="0"/>
        <pt x="61" y="22" on="0"/>
        <pt x="41" y="103" on="0"/>
        <pt x="44" y="210" on="0"/>
        <pt x="55" y="331" on="0"/>
        <pt x="55" y="393" on="1"/>
        <pt x="55" y="456" on="0"/>
        <pt x="43" y="569" on="0"/>
        <pt x="37" y="664" on="0"/>
        <pt x="55" y="733" on="0"/>
        <pt x="113" y="771" on="0"/>
        <pt x="171" y="771" on="1"/>
        <pt x="200" y="771" on="0"/>
        <pt x="289" y="774" on="0"/>
        <pt x="387" y="771" on="0"/>
        <pt x="474" y="750" on="0"/>
        <pt x="532" y="704" on="0"/>
        <pt x="536" y="662" on="1"/>
        <pt x="539" y="622" on="0"/>
        <pt x="549" y="534" on="0"/>
        <pt x="546" y="454" on="0"/>
        <pt x="517" y="395" on="0"/>
        <pt x="481" y="383" on="1"/>
        <pt x="452" y="374" on="0"/>
        <pt x="383" y="379" on="0"/>
        <pt x="321" y="390" on="0"/>
        <pt x="281" y="388" on="0"/>
      </contour>
      <contour>
        <pt x="472" y="550" on="1"/>
        <pt x="472" y="578" on="0"/>
        <pt x="428" y="624" on="0"/>
        <pt x="355" y="651" on="0"/>
        <pt x="311" y="651" on="1"/>
        <pt x="266" y="651" on="0"/>
        <pt x="193" y="624" on="0"/>
        <pt x="149" y="578" on="0"/>
        <pt x="149" y="550" on="1"/>
        <pt x="149" y="521" on="0"/>
        <pt x="193" y="475" on="0"/>
        <pt x="266" y="448" on="0"/>
        <pt x="311" y="448" on="1"/>
        <pt x="355" y="448" on="0"/>
        <pt x="428" y="475" on="0"/>
        <pt x="472" y="521" on="0"/>
      </contour>
    </TTGlyph>
    <TTGlyph name="R.0" xMin="37" yMin="-28" xMax="550" yMax="774">
      <component glyphName="R" x="0" y="0" flags="0x204"/>
    </TTGlyph>
    <TTGlyph name="R.1" xMin="254" yMin="259" xMax="447" yMax="440">
      <component glyphName="beatingHeart" x="103" y="-22" flags="0x4"/>
    </TTGlyph>
    <TTGlyph name="S" xMin="92" yMin="5" xMax="599" yMax="756">
      <contour>
        <pt x="593" y="187" on="1"/>
        <pt x="599" y="151" on="0"/>
        <pt x="558" y="97" on="0"/>
        <pt x="482" y="58" on="0"/>
        <pt x="387" y="32" on="0"/>
        <pt x="286" y="16" on="0"/>
        <pt x="195" y="8" on="0"/>
        <pt x="128" y="5" on="0"/>
        <pt x="116" y="5" on="1"/>
        <pt x="110" y="5" on="0"/>
        <pt x="151" y="10" on="0"/>
        <pt x="226" y="22" on="0"/>
        <pt x="317" y="41" on="0"/>
        <pt x="406" y="68" on="0"/>
        <pt x="477" y="104" on="0"/>
        <pt x="512" y="150" on="0"/>
        <pt x="501" y="179" on="1"/>
        <pt x="490" y="209" on="0"/>
        <pt x="422" y="274" on="0"/>
        <pt x="329" y="343" on="0"/>
        <pt x="231" y="413" on="0"/>
        <pt x="145" y="480" on="0"/>
        <pt x="92" y="543" on="0"/>
        <pt x="92" y="570" on="1"/>
        <pt x="92" y="623" on="0"/>
        <pt x="140" y="692" on="0"/>
        <pt x="218" y="732" on="0"/>
        <pt x="310" y="751" on="0"/>
        <pt x="397" y="756" on="0"/>
        <pt x="465" y="754" on="0"/>
        <pt x="479" y="754" on="1"/>
        <pt x="486" y="754" on="0"/>
        <pt x="442" y="743" on="0"/>
        <pt x="367" y="721" on="0"/>
        <pt x="282" y="691" on="0"/>
        <pt x="211" y="653" on="0"/>
        <pt x="176" y="608" on="0"/>
        <pt x="189" y="583" on="1"/>
        <pt x="204" y="554" on="0"/>
        <pt x="272" y="488" on="0"/>
        <pt x="361" y="419" on="0"/>
        <pt x="454" y="348" on="0"/>
        <pt x="535" y="280" on="0"/>
        <pt x="589" y="216" on="0"/>
      </contour>
    </TTGlyph>
    <TTGlyph name="S.0" xMin="92" yMin="5" xMax="599" yMax="756">
      <component glyphName="S" x="0" y="0" flags="0x204"/>
    </TTGlyph>
    <TTGlyph name="S.1" xMin="182" yMin="263" xMax="375" yMax="444">
      <component glyphName="beatingHeart" x="31" y="-18" flags="0x4"/>
    </TTGlyph>
    <TTGlyph name="T" xMin="7" yMin="-21" xMax="789" yMax="786">
      <contour>
        <pt x="472" y="700" on="1"/>
        <pt x="472" y="646" on="0"/>
        <pt x="472" y="498" on="0"/>
        <pt x="470" y="336" on="0"/>
        <pt x="463" y="180" on="0"/>
        <pt x="449" y="54" on="0"/>
        <pt x="424" y="-21" on="0"/>
        <pt x="406" y="-21" on="1"/>
        <pt x="387" y="-21" on="0"/>
        <pt x="367" y="52" on="0"/>
        <pt x="359" y="175" on="0"/>
        <pt x="357" y="326" on="0"/>
        <pt x="358" y="486" on="0"/>
        <pt x="356" y="632" on="0"/>
        <pt x="351" y="687" on="1"/>
        <pt x="350" y="701" on="0"/>
        <pt x="307" y="701" on="0"/>
        <pt x="240" y="685" on="0"/>
        <pt x="164" y="662" on="0"/>
        <pt x="92" y="642" on="0"/>
        <pt x="39" y="638" on="0"/>
        <pt x="30" y="648" on="1"/>
        <pt x="7" y="676" on="0"/>
        <pt x="19" y="732" on="0"/>
        <pt x="39" y="752" on="1"/>
        <pt x="54" y="767" on="0"/>
        <pt x="130" y="778" on="0"/>
        <pt x="228" y="778" on="0"/>
        <pt x="324" y="771" on="0"/>
        <pt x="395" y="765" on="0"/>
        <pt x="406" y="765" on="1"/>
        <pt x="417" y="765" on="0"/>
        <pt x="488" y="774" on="0"/>
        <pt x="583" y="784" on="0"/>
        <pt x="679" y="786" on="0"/>
        <pt x="754" y="773" on="0"/>
        <pt x="768" y="754" on="1"/>
        <pt x="785" y="732" on="0"/>
        <pt x="789" y="668" on="0"/>
        <pt x="774" y="637" on="1"/>
        <pt x="768" y="625" on="0"/>
        <pt x="720" y="632" on="0"/>
        <pt x="651" y="657" on="0"/>
        <pt x="577" y="687" on="0"/>
        <pt x="513" y="710" on="0"/>
        <pt x="472" y="715" on="0"/>
      </contour>
    </TTGlyph>
    <TTGlyph name="T.0" xMin="7" yMin="-21" xMax="789" yMax="786">
      <component glyphName="T" x="0" y="0" flags="0x4"/>
    </TTGlyph>
    <TTGlyph name="T.1" xMin="295" yMin="268" xMax="488" yMax="449">
      <component glyphName="beatingHeart" x="144" y="-13" flags="0x4"/>
    </TTGlyph>
    <TTGlyph name="U" xMin="50" yMin="-5" xMax="569" yMax="778">
      <contour>
        <pt x="567" y="155" on="1"/>
        <pt x="569" y="98" on="0"/>
        <pt x="541" y="35" on="0"/>
        <pt x="488" y="8" on="0"/>
        <pt x="421" y="2" on="0"/>
        <pt x="385" y="2" on="1"/>
        <pt x="357" y="2" on="0"/>
        <pt x="276" y="-5" on="0"/>
        <pt x="189" y="-1" on="0"/>
        <pt x="114" y="26" on="0"/>
        <pt x="67" y="94" on="0"/>
        <pt x="67" y="155" on="1"/>
        <pt x="67" y="171" on="0"/>
        <pt x="63" y="261" on="0"/>
        <pt x="58" y="386" on="0"/>
        <pt x="53" y="521" on="0"/>
        <pt x="50" y="643" on="0"/>
        <pt x="50" y="730" on="0"/>
        <pt x="54" y="743" on="1"/>
        <pt x="57" y="757" on="0"/>
        <pt x="79" y="771" on="0"/>
        <pt x="108" y="774" on="0"/>
        <pt x="138" y="769" on="0"/>
        <pt x="163" y="756" on="0"/>
        <pt x="169" y="747" on="1"/>
        <pt x="175" y="738" on="0"/>
        <pt x="175" y="671" on="0"/>
        <pt x="168" y="571" on="0"/>
        <pt x="161" y="453" on="0"/>
        <pt x="160" y="328" on="0"/>
        <pt x="168" y="211" on="0"/>
        <pt x="181" y="163" on="1"/>
        <pt x="188" y="137" on="0"/>
        <pt x="239" y="111" on="0"/>
        <pt x="308" y="105" on="0"/>
        <pt x="378" y="113" on="0"/>
        <pt x="430" y="128" on="0"/>
        <pt x="438" y="136" on="1"/>
        <pt x="443" y="142" on="0"/>
        <pt x="447" y="212" on="0"/>
        <pt x="446" y="321" on="0"/>
        <pt x="444" y="449" on="0"/>
        <pt x="442" y="577" on="0"/>
        <pt x="445" y="686" on="0"/>
        <pt x="454" y="757" on="0"/>
        <pt x="464" y="763" on="1"/>
        <pt x="475" y="769" on="0"/>
        <pt x="502" y="778" on="0"/>
        <pt x="529" y="777" on="0"/>
        <pt x="551" y="763" on="0"/>
        <pt x="555" y="746" on="1"/>
        <pt x="559" y="732" on="0"/>
        <pt x="563" y="644" on="0"/>
        <pt x="565" y="522" on="0"/>
        <pt x="565" y="387" on="0"/>
        <pt x="565" y="263" on="0"/>
        <pt x="566" y="172" on="0"/>
      </contour>
    </TTGlyph>
    <TTGlyph name="U.0" xMin="50" yMin="-5" xMax="569" yMax="778">
      <component glyphName="U" x="0" y="0" flags="0x4"/>
    </TTGlyph>
    <TTGlyph name="U.1" xMin="205" yMin="290" xMax="398" yMax="471">
      <component glyphName="beatingHeart" x="54" y="9" flags="0x4"/>
    </TTGlyph>
    <TTGlyph name="V" xMin="48" yMin="-2" xMax="723" yMax="786">
      <contour>
        <pt x="554" y="374" on="1"/>
        <pt x="549" y="360" on="0"/>
        <pt x="528" y="294" on="0"/>
        <pt x="500" y="209" on="0"/>
        <pt x="466" y="121" on="0"/>
        <pt x="426" y="45" on="0"/>
        <pt x="381" y="-2" on="0"/>
        <pt x="357" y="-2" on="1"/>
        <pt x="322" y="-2" on="0"/>
        <pt x="274" y="59" on="0"/>
        <pt x="235" y="164" on="0"/>
        <pt x="190" y="295" on="0"/>
        <pt x="157" y="365" on="1"/>
        <pt x="145" y="392" on="0"/>
        <pt x="113" y="475" on="0"/>
        <pt x="83" y="569" on="0"/>
        <pt x="59" y="658" on="0"/>
        <pt x="48" y="727" on="0"/>
        <pt x="51" y="743" on="1"/>
        <pt x="56" y="760" on="0"/>
        <pt x="84" y="772" on="0"/>
        <pt x="122" y="769" on="0"/>
        <pt x="156" y="756" on="0"/>
        <pt x="166" y="747" on="1"/>
        <pt x="176" y="739" on="0"/>
        <pt x="202" y="668" on="0"/>
        <pt x="234" y="563" on="0"/>
        <pt x="269" y="442" on="0"/>
        <pt x="303" y="323" on="0"/>
        <pt x="335" y="225" on="0"/>
        <pt x="361" y="166" on="0"/>
        <pt x="369" y="166" on="1"/>
        <pt x="377" y="166" on="0"/>
        <pt x="401" y="228" on="0"/>
        <pt x="431" y="331" on="0"/>
        <pt x="465" y="456" on="0"/>
        <pt x="502" y="583" on="0"/>
        <pt x="540" y="693" on="0"/>
        <pt x="577" y="766" on="0"/>
        <pt x="593" y="774" on="1"/>
        <pt x="606" y="780" on="0"/>
        <pt x="644" y="786" on="0"/>
        <pt x="684" y="783" on="0"/>
        <pt x="714" y="767" on="0"/>
        <pt x="718" y="750" on="1"/>
        <pt x="723" y="733" on="0"/>
        <pt x="697" y="659" on="0"/>
        <pt x="653" y="565" on="0"/>
        <pt x="603" y="470" on="0"/>
        <pt x="562" y="393" on="0"/>
      </contour>
    </TTGlyph>
    <TTGlyph name="V.0" xMin="48" yMin="-2" xMax="723" yMax="786">
      <component glyphName="V" x="0" y="0" flags="0x4"/>
    </TTGlyph>
    <TTGlyph name="V.1" xMin="305" yMin="281" xMax="498" yMax="462">
      <component glyphName="beatingHeart" x="154" y="0" flags="0x4"/>
    </TTGlyph>
    <TTGlyph name="W" xMin="56" yMin="-20" xMax="1153" yMax="805">
      <contour>
        <pt x="1152" y="761" on="1"/>
        <pt x="1153" y="745" on="0"/>
        <pt x="1143" y="651" on="0"/>
        <pt x="1125" y="518" on="0"/>
        <pt x="1098" y="366" on="0"/>
        <pt x="1065" y="216" on="0"/>
        <pt x="1026" y="90" on="0"/>
        <pt x="984" y="9" on="0"/>
        <pt x="961" y="2" on="1"/>
        <pt x="918" y="-11" on="0"/>
        <pt x="837" y="-7" on="0"/>
        <pt x="788" y="8" on="1"/>
        <pt x="772" y="13" on="0"/>
        <pt x="749" y="80" on="0"/>
        <pt x="732" y="184" on="0"/>
        <pt x="718" y="305" on="0"/>
        <pt x="704" y="425" on="0"/>
        <pt x="686" y="525" on="0"/>
        <pt x="661" y="585" on="0"/>
        <pt x="644" y="585" on="1"/>
        <pt x="623" y="585" on="0"/>
        <pt x="596" y="529" on="0"/>
        <pt x="579" y="436" on="0"/>
        <pt x="566" y="322" on="0"/>
        <pt x="552" y="205" on="0"/>
        <pt x="533" y="101" on="0"/>
        <pt x="504" y="27" on="0"/>
        <pt x="482" y="15" on="1"/>
        <pt x="444" y="-6" on="0"/>
        <pt x="365" y="-20" on="0"/>
        <pt x="292" y="7" on="0"/>
        <pt x="262" y="46" on="1"/>
        <pt x="253" y="58" on="0"/>
        <pt x="220" y="138" on="0"/>
        <pt x="179" y="254" on="0"/>
        <pt x="137" y="388" on="0"/>
        <pt x="98" y="522" on="0"/>
        <pt x="69" y="640" on="0"/>
        <pt x="56" y="722" on="0"/>
        <pt x="61" y="735" on="1"/>
        <pt x="66" y="749" on="0"/>
        <pt x="83" y="765" on="0"/>
        <pt x="104" y="770" on="0"/>
        <pt x="126" y="761" on="0"/>
        <pt x="136" y="749" on="1"/>
        <pt x="145" y="738" on="0"/>
        <pt x="173" y="654" on="0"/>
        <pt x="209" y="530" on="0"/>
        <pt x="249" y="389" on="0"/>
        <pt x="290" y="252" on="0"/>
        <pt x="329" y="141" on="0"/>
        <pt x="361" y="77" on="0"/>
        <pt x="373" y="80" on="1"/>
        <pt x="384" y="83" on="0"/>
        <pt x="416" y="154" on="0"/>
        <pt x="456" y="267" on="0"/>
        <pt x="499" y="400" on="0"/>
        <pt x="542" y="532" on="0"/>
        <pt x="583" y="643" on="0"/>
        <pt x="618" y="711" on="0"/>
        <pt x="630" y="713" on="1"/>
        <pt x="644" y="715" on="0"/>
        <pt x="643" y="717" on="0"/>
        <pt x="630" y="718" on="0"/>
        <pt x="617" y="718" on="0"/>
        <pt x="618" y="718" on="0"/>
        <pt x="633" y="718" on="1"/>
        <pt x="653" y="718" on="0"/>
        <pt x="692" y="652" on="0"/>
        <pt x="730" y="544" on="0"/>
        <pt x="767" y="413" on="0"/>
        <pt x="804" y="281" on="0"/>
        <pt x="839" y="169" on="0"/>
        <pt x="874" y="97" on="0"/>
        <pt x="891" y="93" on="1"/>
        <pt x="899" y="91" on="0"/>
        <pt x="924" y="158" on="0"/>
        <pt x="954" y="273" on="0"/>
        <pt x="987" y="414" on="0"/>
        <pt x="1022" y="559" on="0"/>
        <pt x="1055" y="687" on="0"/>
        <pt x="1085" y="775" on="0"/>
        <pt x="1097" y="788" on="1"/>
        <pt x="1107" y="799" on="0"/>
        <pt x="1132" y="805" on="0"/>
        <pt x="1151" y="787" on="0"/>
      </contour>
    </TTGlyph>
    <TTGlyph name="W.0" xMin="56" yMin="-20" xMax="1153" yMax="805">
      <component glyphName="W" x="0" y="0" flags="0x4"/>
    </TTGlyph>
    <TTGlyph name="W.1" xMin="480" yMin="289" xMax="673" yMax="470">
      <component glyphName="beatingHeart" x="329" y="8" flags="0x4"/>
    </TTGlyph>
    <TTGlyph name="X" xMin="44" yMin="-23" xMax="705" yMax="784">
      <contour>
        <pt x="420" y="417" on="1"/>
        <pt x="420" y="390" on="0"/>
        <pt x="458" y="326" on="0"/>
        <pt x="519" y="256" on="0"/>
        <pt x="588" y="184" on="0"/>
        <pt x="652" y="115" on="0"/>
        <pt x="695" y="54" on="0"/>
        <pt x="705" y="5" on="0"/>
        <pt x="685" y="-11" on="1"/>
        <pt x="671" y="-23" on="0"/>
        <pt x="627" y="3" on="0"/>
        <pt x="574" y="62" on="0"/>
        <pt x="516" y="140" on="0"/>
        <pt x="457" y="221" on="0"/>
        <pt x="401" y="290" on="0"/>
        <pt x="351" y="333" on="0"/>
        <pt x="332" y="333" on="1"/>
        <pt x="311" y="333" on="0"/>
        <pt x="269" y="290" on="0"/>
        <pt x="227" y="221" on="0"/>
        <pt x="186" y="140" on="0"/>
        <pt x="146" y="64" on="0"/>
        <pt x="110" y="6" on="0"/>
        <pt x="77" y="-17" on="0"/>
        <pt x="62" y="-3" on="1"/>
        <pt x="44" y="15" on="0"/>
        <pt x="59" y="73" on="0"/>
        <pt x="107" y="145" on="0"/>
        <pt x="170" y="224" on="0"/>
        <pt x="230" y="302" on="0"/>
        <pt x="269" y="374" on="0"/>
        <pt x="269" y="403" on="1"/>
        <pt x="269" y="435" on="0"/>
        <pt x="235" y="504" on="0"/>
        <pt x="183" y="574" on="0"/>
        <pt x="130" y="641" on="0"/>
        <pt x="93" y="702" on="0"/>
        <pt x="87" y="753" on="0"/>
        <pt x="108" y="771" on="1"/>
        <pt x="124" y="784" on="0"/>
        <pt x="162" y="756" on="0"/>
        <pt x="203" y="694" on="0"/>
        <pt x="247" y="617" on="0"/>
        <pt x="292" y="546" on="0"/>
        <pt x="337" y="500" on="0"/>
        <pt x="358" y="500" on="1"/>
        <pt x="379" y="500" on="0"/>
        <pt x="427" y="545" on="0"/>
        <pt x="479" y="615" on="0"/>
        <pt x="531" y="690" on="0"/>
        <pt x="579" y="752" on="0"/>
        <pt x="622" y="781" on="0"/>
        <pt x="638" y="769" on="1"/>
        <pt x="663" y="752" on="0"/>
        <pt x="651" y="704" on="0"/>
        <pt x="601" y="647" on="0"/>
        <pt x="532" y="584" on="0"/>
        <pt x="465" y="517" on="0"/>
        <pt x="420" y="450" on="0"/>
      </contour>
    </TTGlyph>
    <TTGlyph name="X.0" xMin="44" yMin="-23" xMax="705" yMax="784">
      <component glyphName="X" x="0" y="0" flags="0x204"/>
    </TTGlyph>
    <TTGlyph name="X.1" xMin="245" yMin="291" xMax="438" yMax="472">
      <component glyphName="beatingHeart" x="94" y="10" flags="0x4"/>
    </TTGlyph>
    <TTGlyph name="Y" xMin="45" yMin="0" xMax="534" yMax="769">
      <contour>
        <pt x="333" y="316" on="1"/>
        <pt x="333" y="233" on="0"/>
        <pt x="350" y="113" on="0"/>
        <pt x="359" y="36" on="0"/>
        <pt x="339" y="0" on="0"/>
        <pt x="303" y="0" on="1"/>
        <pt x="266" y="0" on="0"/>
        <pt x="242" y="41" on="0"/>
        <pt x="246" y="123" on="0"/>
        <pt x="259" y="248" on="0"/>
        <pt x="259" y="331" on="1"/>
        <pt x="259" y="361" on="0"/>
        <pt x="224" y="435" on="0"/>
        <pt x="171" y="517" on="0"/>
        <pt x="114" y="599" on="0"/>
        <pt x="67" y="673" on="0"/>
        <pt x="45" y="733" on="0"/>
        <pt x="54" y="751" on="1"/>
        <pt x="61" y="765" on="0"/>
        <pt x="89" y="745" on="0"/>
        <pt x="126" y="692" on="0"/>
        <pt x="169" y="621" on="0"/>
        <pt x="213" y="546" on="0"/>
        <pt x="253" y="481" on="0"/>
        <pt x="286" y="441" on="0"/>
        <pt x="296" y="441" on="1"/>
        <pt x="307" y="441" on="0"/>
        <pt x="340" y="492" on="0"/>
        <pt x="380" y="572" on="0"/>
        <pt x="422" y="659" on="0"/>
        <pt x="463" y="731" on="0"/>
        <pt x="501" y="769" on="0"/>
        <pt x="516" y="758" on="1"/>
        <pt x="534" y="745" on="0"/>
        <pt x="522" y="686" on="0"/>
        <pt x="480" y="607" on="0"/>
        <pt x="423" y="516" on="0"/>
        <pt x="369" y="426" on="0"/>
        <pt x="333" y="345" on="0"/>
      </contour>
    </TTGlyph>
    <TTGlyph name="Y.0" xMin="45" yMin="0" xMax="534" yMax="769">
      <component glyphName="Y" x="0" y="0" flags="0x4"/>
    </TTGlyph>
    <TTGlyph name="Y.1" xMin="201" yMin="279" xMax="394" yMax="460">
      <component glyphName="beatingHeart" x="50" y="-2" flags="0x4"/>
    </TTGlyph>
    <TTGlyph name="Z" xMin="44" yMin="-10" xMax="716" yMax="792">
      <contour>
        <pt x="700" y="58" on="1"/>
        <pt x="702" y="39" on="0"/>
        <pt x="653" y="15" on="0"/>
        <pt x="565" y="1" on="0"/>
        <pt x="453" y="-6" on="0"/>
        <pt x="329" y="-8" on="0"/>
        <pt x="208" y="-8" on="0"/>
        <pt x="103" y="-7" on="0"/>
        <pt x="66" y="-9" on="1"/>
        <pt x="44" y="-10" on="0"/>
        <pt x="60" y="42" on="0"/>
        <pt x="119" y="132" on="0"/>
        <pt x="204" y="247" on="0"/>
        <pt x="301" y="371" on="0"/>
        <pt x="395" y="491" on="0"/>
        <pt x="469" y="593" on="0"/>
        <pt x="509" y="663" on="0"/>
        <pt x="503" y="674" on="1"/>
        <pt x="493" y="692" on="0"/>
        <pt x="442" y="708" on="0"/>
        <pt x="370" y="712" on="0"/>
        <pt x="290" y="711" on="0"/>
        <pt x="213" y="712" on="0"/>
        <pt x="151" y="720" on="0"/>
        <pt x="115" y="743" on="0"/>
        <pt x="117" y="765" on="1"/>
        <pt x="118" y="777" on="0"/>
        <pt x="178" y="789" on="0"/>
        <pt x="276" y="792" on="0"/>
        <pt x="394" y="789" on="0"/>
        <pt x="515" y="783" on="0"/>
        <pt x="621" y="776" on="0"/>
        <pt x="693" y="771" on="0"/>
        <pt x="703" y="771" on="1"/>
        <pt x="716" y="771" on="0"/>
        <pt x="685" y="719" on="0"/>
        <pt x="616" y="629" on="0"/>
        <pt x="522" y="515" on="0"/>
        <pt x="419" y="390" on="0"/>
        <pt x="321" y="268" on="0"/>
        <pt x="245" y="161" on="0"/>
        <pt x="205" y="83" on="0"/>
        <pt x="211" y="66" on="1"/>
        <pt x="216" y="53" on="0"/>
        <pt x="272" y="48" on="0"/>
        <pt x="359" y="57" on="0"/>
        <pt x="460" y="72" on="0"/>
        <pt x="561" y="85" on="0"/>
        <pt x="645" y="89" on="0"/>
        <pt x="698" y="77" on="0"/>
      </contour>
    </TTGlyph>
    <TTGlyph name="Z.0" xMin="44" yMin="-10" xMax="716" yMax="792">
      <component glyphName="Z" x="0" y="0" flags="0x204"/>
    </TTGlyph>
    <TTGlyph name="Z.1" xMin="274" yMin="289" xMax="467" yMax="470">
      <component glyphName="beatingHeart" x="123" y="8" flags="0x4"/>
    </TTGlyph>
    <TTGlyph name="beatingHeart" xMin="151" yMin="281" xMax="344" yMax="462">
      <contour>
        <pt x="344" y="422" on="1"/>
        <pt x="344" y="411" on="0"/>
        <pt x="331" y="381" on="0"/>
        <pt x="311" y="348" on="0"/>
        <pt x="289" y="318" on="0"/>
        <pt x="267" y="294" on="0"/>
        <pt x="252" y="281" on="0"/>
        <pt x="250" y="282" on="1"/>
        <pt x="239" y="291" on="0"/>
        <pt x="213" y="315" on="0"/>
        <pt x="186" y="344" on="0"/>
        <pt x="164" y="375" on="0"/>
        <pt x="151" y="406" on="0"/>
        <pt x="151" y="419" on="1"/>
        <pt x="151" y="430" on="0"/>
        <pt x="163" y="448" on="0"/>
        <pt x="183" y="459" on="0"/>
        <pt x="206" y="462" on="0"/>
        <pt x="216" y="458" on="1"/>
        <pt x="221" y="456" on="0"/>
        <pt x="228" y="446" on="0"/>
        <pt x="235" y="434" on="0"/>
        <pt x="243" y="426" on="0"/>
        <pt x="249" y="426" on="1"/>
        <pt x="256" y="426" on="0"/>
        <pt x="263" y="434" on="0"/>
        <pt x="268" y="445" on="0"/>
        <pt x="275" y="455" on="0"/>
        <pt x="281" y="457" on="1"/>
        <pt x="290" y="460" on="0"/>
        <pt x="312" y="458" on="0"/>
        <pt x="332" y="449" on="0"/>
        <pt x="344" y="433" on="0"/>
      </contour>
    </TTGlyph>
    <TTGlyph name="comma" xMin="230" yMin="-59" xMax="296" yMax="57">
      <contour>
        <pt x="296" y="-2" on="1"/>
        <pt x="296" y="-27" on="0"/>
        <pt x="279" y="-59" on="0"/>
        <pt x="265" y="-59" on="1"/>
        <pt x="258" y="-59" on="0"/>
        <pt x="266" y="-38" on="0"/>
        <pt x="277" y="-10" on="0"/>
        <pt x="274" y="-1" on="1"/>
        <pt x="273" y="3" on="0"/>
        <pt x="251" y="-1" on="0"/>
        <pt x="230" y="-4" on="0"/>
        <pt x="230" y="1" on="1"/>
        <pt x="230" y="26" on="0"/>
        <pt x="248" y="57" on="0"/>
        <pt x="262" y="57" on="1"/>
        <pt x="276" y="57" on="0"/>
        <pt x="296" y="23" on="0"/>
      </contour>
    </TTGlyph>
    <TTGlyph name="comma.0" xMin="230" yMin="-59" xMax="296" yMax="57">
      <component glyphName="comma" x="0" y="0" flags="0x4"/>
    </TTGlyph>
    <TTGlyph name="comma.1" xMin="151" yMin="281" xMax="344" yMax="462">
      <component glyphName="beatingHeart" x="0" y="0" flags="0x4"/>
    </TTGlyph>
    <TTGlyph name="exclam" xMin="50" yMin="-13" xMax="144" yMax="755">
      <contour>
        <pt x="144" y="487" on="1"/>
        <pt x="144" y="413" on="0"/>
        <pt x="132" y="291" on="0"/>
        <pt x="111" y="219" on="0"/>
        <pt x="98" y="219" on="1"/>
        <pt x="88" y="219" on="0"/>
        <pt x="72" y="261" on="0"/>
        <pt x="59" y="334" on="0"/>
        <pt x="52" y="431" on="0"/>
        <pt x="52" y="487" on="1"/>
        <pt x="52" y="543" on="0"/>
        <pt x="59" y="640" on="0"/>
        <pt x="72" y="713" on="0"/>
        <pt x="88" y="755" on="0"/>
        <pt x="98" y="755" on="1"/>
        <pt x="111" y="755" on="0"/>
        <pt x="132" y="683" on="0"/>
        <pt x="144" y="561" on="0"/>
      </contour>
      <contour>
        <pt x="144" y="51" on="1"/>
        <pt x="144" y="24" on="0"/>
        <pt x="116" y="-13" on="0"/>
        <pt x="97" y="-13" on="1"/>
        <pt x="78" y="-13" on="0"/>
        <pt x="50" y="24" on="0"/>
        <pt x="50" y="51" on="1"/>
        <pt x="50" y="77" on="0"/>
        <pt x="78" y="114" on="0"/>
        <pt x="97" y="114" on="1"/>
        <pt x="116" y="114" on="0"/>
        <pt x="144" y="77" on="0"/>
      </contour>
    </TTGlyph>
    <TTGlyph name="exclam.0" xMin="50" yMin="-13" xMax="144" yMax="755">
      <component glyphName="exclam" x="0" y="0" flags="0x204"/>
    </TTGlyph>
    <TTGlyph name="exclam.1" xMin="151" yMin="281" xMax="344" yMax="462">
      <component glyphName="beatingHeart" x="0" y="0" flags="0x4"/>
    </TTGlyph>
    <TTGlyph name="period" xMin="214" yMin="-5" xMax="287" yMax="71">
      <contour>
        <pt x="287" y="33" on="1"/>
        <pt x="287" y="17" on="0"/>
        <pt x="266" y="-5" on="0"/>
        <pt x="251" y="-5" on="1"/>
        <pt x="235" y="-5" on="0"/>
        <pt x="214" y="17" on="0"/>
        <pt x="214" y="33" on="1"/>
        <pt x="214" y="49" on="0"/>
        <pt x="235" y="71" on="0"/>
        <pt x="251" y="71" on="1"/>
        <pt x="266" y="71" on="0"/>
        <pt x="287" y="49" on="0"/>
      </contour>
    </TTGlyph>
    <TTGlyph name="period.0" xMin="214" yMin="-5" xMax="287" yMax="71">
      <component glyphName="period" x="0" y="0" flags="0x204"/>
    </TTGlyph>
    <TTGlyph name="period.1" xMin="151" yMin="281" xMax="344" yMax="462">
      <component glyphName="beatingHeart" x="0" y="0" flags="0x4"/>
    </TTGlyph>
    <TTGlyph name="question" xMin="147" yMin="-28" xMax="412" yMax="760">
      <contour>
        <pt x="307" y="14" on="1"/>
        <pt x="307" y="-4" on="0"/>
        <pt x="284" y="-28" on="0"/>
        <pt x="269" y="-28" on="1"/>
        <pt x="253" y="-28" on="0"/>
        <pt x="230" y="-4" on="0"/>
        <pt x="230" y="14" on="1"/>
        <pt x="230" y="31" on="0"/>
        <pt x="253" y="55" on="0"/>
        <pt x="269" y="55" on="1"/>
        <pt x="284" y="55" on="0"/>
        <pt x="307" y="31" on="0"/>
      </contour>
      <contour>
        <pt x="280" y="134" on="1"/>
        <pt x="261" y="134" on="0"/>
        <pt x="232" y="187" on="0"/>
        <pt x="213" y="277" on="0"/>
        <pt x="204" y="392" on="0"/>
        <pt x="204" y="454" on="1"/>
        <pt x="204" y="463" on="0"/>
        <pt x="240" y="490" on="0"/>
        <pt x="290" y="520" on="0"/>
        <pt x="331" y="548" on="0"/>
        <pt x="336" y="558" on="1"/>
        <pt x="340" y="566" on="0"/>
        <pt x="338" y="602" on="0"/>
        <pt x="328" y="641" on="0"/>
        <pt x="314" y="670" on="0"/>
        <pt x="306" y="673" on="1"/>
        <pt x="297" y="676" on="0"/>
        <pt x="250" y="667" on="0"/>
        <pt x="197" y="654" on="0"/>
        <pt x="157" y="650" on="0"/>
        <pt x="153" y="658" on="1"/>
        <pt x="147" y="671" on="0"/>
        <pt x="169" y="701" on="0"/>
        <pt x="209" y="729" on="0"/>
        <pt x="256" y="750" on="0"/>
        <pt x="297" y="760" on="0"/>
        <pt x="307" y="757" on="1"/>
        <pt x="324" y="752" on="0"/>
        <pt x="355" y="710" on="0"/>
        <pt x="382" y="651" on="0"/>
        <pt x="402" y="589" on="0"/>
        <pt x="412" y="538" on="0"/>
        <pt x="411" y="527" on="1"/>
        <pt x="408" y="497" on="0"/>
        <pt x="373" y="474" on="0"/>
        <pt x="328" y="468" on="0"/>
        <pt x="293" y="464" on="0"/>
        <pt x="290" y="454" on="1"/>
        <pt x="287" y="445" on="0"/>
        <pt x="287" y="392" on="0"/>
        <pt x="289" y="319" on="0"/>
        <pt x="290" y="242" on="0"/>
        <pt x="290" y="176" on="0"/>
        <pt x="286" y="134" on="0"/>
      </contour>
    </TTGlyph>
    <TTGlyph name="question.0" xMin="147" yMin="-28" xMax="412" yMax="760">
      <component glyphName="question" x="0" y="0" flags="0x204"/>
    </TTGlyph>
    <TTGlyph name="question.1" xMin="151" yMin="281" xMax="344" yMax="462">
      <component glyphName="beatingHeart" x="0" y="0" flags="0x4"/>
    </TTGlyph>
</ttFont>
